<svg width="120" height="120" viewBox="0 0 120 120" fill="none" xmlns="http://www.w3.org/2000/svg">
<path fill-rule="evenodd" clip-rule="evenodd" d="M60.0002 119.706C93.056 119.706 119.853 92.9088 119.853 59.8529C119.853 26.7971 93.056 0 60.0002 0C26.9443 0 0.147217 26.7971 0.147217 59.8529C0.147217 92.9088 26.9443 119.706 60.0002 119.706ZM60 111.306C88.4168 111.306 111.453 88.2697 111.453 59.853C111.453 31.4362 88.4168 8.39983 60 8.39983C31.5832 8.39983 8.54688 31.4362 8.54688 59.853C8.54688 88.2697 31.5832 111.306 60 111.306Z" fill="#787878"/>
<path d="M62.4157 49.4669L74.3364 19.408C74.8327 18.1566 74.2027 16.7292 72.9446 16.3251C63.5999 13.3235 57.3724 13.5072 47.7132 16.366C46.4194 16.7489 45.7504 18.2023 46.2572 19.4804L58.1492 49.4669C58.927 51.4282 61.6379 51.4282 62.4157 49.4669Z" fill="#787878"/>
<path d="M62.4157 70.239L74.3364 100.298C74.8327 101.549 74.2027 102.977 72.9446 103.381C63.5999 106.382 57.3724 106.199 47.7132 103.34C46.4194 102.957 45.7504 101.504 46.2572 100.226L58.1492 70.239C58.927 68.2777 61.6379 68.2777 62.4157 70.239Z" fill="#787878"/>
<path d="M70.1387 62.0383L99.4819 74.2497C100.704 74.7581 102.097 74.1127 102.491 72.8239C105.422 63.2513 105.242 56.8719 102.452 46.9771C102.078 45.6517 100.659 44.9664 99.4113 45.4856L70.1387 57.6677C68.2241 58.4645 68.2241 61.2415 70.1387 62.0383Z" fill="#787878"/>
<path d="M49.8612 62.0383L20.518 74.2497C19.2964 74.7581 17.9029 74.1127 17.5084 72.8239C14.5784 63.2513 14.7576 56.8719 17.5484 46.9771C17.9222 45.6517 19.3409 44.9664 20.5886 45.4856L49.8612 57.6677C51.7758 58.4645 51.7758 61.2415 49.8612 62.0383Z" fill="#787878"/>
<path d="M68.8774 54.2588L98.0554 41.6387C99.2701 41.1134 99.81 39.6477 99.1993 38.4506C94.6634 29.5593 90.1332 25.1782 81.3297 20.2031C80.1506 19.5367 78.6743 20.0797 78.1504 21.3506L65.8605 51.1684C65.0567 53.1186 66.9736 55.0822 68.8774 54.2588Z" fill="#787878"/>
<path d="M54.539 68.9469L42.2194 98.8365C41.7066 100.081 40.2758 100.634 39.1072 100.008C30.4276 95.3619 26.1509 90.7211 21.2941 81.703C20.6436 80.495 21.1737 78.9827 22.4144 78.4461L51.5222 65.8564C53.426 65.033 55.3429 66.9967 54.539 68.9469Z" fill="#787878"/>
<path d="M65.6607 68.7422L77.9803 98.6319C78.4932 99.8762 79.924 100.429 81.0926 99.8037C89.7721 95.1572 94.0489 90.5164 98.9056 81.4983C99.5562 80.2904 99.026 78.7781 97.7854 78.2415L68.6776 65.6518C66.7738 64.8283 64.8569 66.792 65.6607 68.7422Z" fill="#787878"/>
<path d="M51.3224 54.0542L22.1444 41.4341C20.9297 40.9087 20.3898 39.443 21.0005 38.2459C25.5363 29.3547 30.0666 24.9736 38.87 19.9984C40.0492 19.332 41.5255 19.8751 42.0493 21.146L54.3393 50.9637C55.1431 52.9139 53.2262 54.8776 51.3224 54.0542Z" fill="#787878"/>
</svg>
