<svg width="28" height="28" viewBox="0 0 28 28" fill="none" xmlns="http://www.w3.org/2000/svg">
<path fill-rule="evenodd" clip-rule="evenodd" d="M18.6556 15.8272C18.8779 15.2612 19 14.6449 19 14C19 11.2386 16.7614 9 14 9C13.3551 9 12.7388 9.12208 12.1728 9.34438L13.833 11.0046C13.8883 11.0015 13.944 11 14 11C15.6569 11 17 12.3431 17 14C17 14.056 16.9985 14.1117 16.9954 14.167L18.6556 15.8272ZM11.8787 11.8787C11.3358 12.4216 11 13.1716 11 14C11 15.6569 12.3431 17 14 17C14.8284 17 15.5784 16.6642 16.1213 16.1213L17.5355 17.5355C16.6307 18.4404 15.3807 19 14 19C11.2386 19 9 16.7614 9 14C9 12.6193 9.55964 11.3693 10.4645 10.4645L11.8787 11.8787Z" fill="#787878"/>
<path fill-rule="evenodd" clip-rule="evenodd" d="M22.6351 19.8067C24.2398 18.568 25.5926 17.1034 26.6245 15.6667L27.4623 14.5L26.6245 13.3333C25.3652 11.5799 23.6321 9.54322 21.5507 7.92628C19.4822 6.31938 16.9031 5 14 5C12.2227 5 10.5668 5.49451 9.07518 6.24676L10.5786 7.75022C11.6701 7.27907 12.817 7 14 7C18.5795 7 22.617 11.1818 25 14.5C24 15.8923 22.7088 17.2607 21.2084 18.38L22.6351 19.8067ZM20.9563 20.9563L19.4919 19.4919C17.8185 20.4179 15.9588 21 14 21C9.42045 21 5.38303 17.8182 3 14.5C4.41134 12.5348 6.40296 10.2667 8.74381 8.74381L7.3022 7.3022C7.00916 7.50351 6.72472 7.71234 6.44934 7.92628C4.36794 9.54321 2.63479 11.5799 1.37553 13.3333L0.537659 14.5L1.37553 15.6667C3.94675 19.2469 8.51102 23 14 23C16.5551 23 18.9097 22.1868 20.9563 20.9563Z" fill="#787878"/>
<line x1="3.20711" y1="3.79289" x2="25.2071" y2="25.7929" stroke="#787878" stroke-width="2"/>
</svg>
