<svg width="30" height="30" viewBox="0 0 30 30" fill="none" xmlns="http://www.w3.org/2000/svg">
<circle cx="15" cy="15" r="15" fill="#E5E5EA"/>
<path d="M9.32314 20.677C9.46288 20.8167 9.62882 20.9127 9.82096 20.9651C10.0189 21.0116 10.214 21.0116 10.4061 20.9651C10.6041 20.9127 10.7729 20.8196 10.9127 20.6857L15 16.5911L19.0961 20.677C19.2358 20.8225 19.3988 20.9185 19.5852 20.9651C19.7773 21.0116 19.9694 21.0116 20.1616 20.9651C20.3595 20.9127 20.5284 20.8138 20.6681 20.6682C20.8195 20.5286 20.9185 20.3627 20.9651 20.1706C21.0116 19.9727 21.0116 19.7777 20.9651 19.5857C20.9185 19.3936 20.8224 19.2277 20.6769 19.088L16.5983 14.9935L20.6769 10.9076C20.8224 10.7679 20.9185 10.602 20.9651 10.41C21.0116 10.2179 21.0116 10.0258 20.9651 9.83376C20.9185 9.63587 20.8195 9.46708 20.6681 9.32739C20.5284 9.18188 20.3595 9.08585 20.1616 9.03929C19.9694 8.9869 19.7773 8.9869 19.5852 9.03929C19.3988 9.08585 19.2358 9.17897 19.0961 9.31866L15 13.4045L10.9127 9.30993C10.7729 9.17606 10.6041 9.08585 10.4061 9.03929C10.214 8.9869 10.0189 8.9869 9.82096 9.03929C9.62882 9.08585 9.46288 9.17897 9.32314 9.31866C9.17758 9.46417 9.08151 9.63587 9.03493 9.83376C8.98836 10.0258 8.98836 10.2179 9.03493 10.41C9.08151 10.602 9.17467 10.7679 9.31441 10.9076L13.4105 14.9935L9.31441 19.088C9.17467 19.2277 9.08151 19.3936 9.03493 19.5857C8.98836 19.7777 8.98836 19.9727 9.03493 20.1706C9.08151 20.3627 9.17758 20.5315 9.32314 20.677Z" fill="#8E8E93"/>
</svg>
